<?xml version="1.0" encoding="UTF-8"?><svg id="Layer_2" xmlns="http://www.w3.org/2000/svg" viewBox="0 0 167 167"><defs><style>.cls-1{fill:#fff;}.cls-2{fill:#1975ff;}</style></defs><g id="Layer_2-2"><circle class="cls-2" cx="83.5" cy="83.5" r="83.5"/><path class="cls-1" d="m55.6,86.94h-16.02v15.83h-8.76v-39.09h8.69v15.55h16.09c.06-.06.12-.12.17-.18v-15.38h8.82v39.09h-8.82v-15.65c-.06-.06-.12-.12-.17-.18Z"/><path class="cls-1" d="m82.17,89.38v13.43h-8.75v-39.15h1.16c3.78,0,7.55-.08,11.33.03,2.85.08,5.73.15,8.49,1.08,3.53,1.18,5.95,3.38,6.93,7.07.92,3.44.92,6.84-.63,10.06-1.93,4-5.39,6.12-9.61,6.99-1.68.35-3.42.38-5.14.48-1.22.07-2.45.01-3.78.01Zm.02-6.57c1.51,0,2.9.14,4.25-.04,1.62-.21,3.26-.51,4.55-1.73,1.88-1.78,1.68-4.03,1.44-6.24-.19-1.69-1.23-2.91-2.79-3.56-2.4-1-4.92-.6-7.44-.61v12.17Z"/><path class="cls-1" d="m136.18,64.79c0,2.68,0,5.37-.01,8.05-.08.01-.15.03-.23.04-3.05-1.49-6.25-2.13-9.66-2.02-4.39.14-7.76,1.98-9.74,5.86-2.49,4.86-2.46,9.84.5,14.53,1.72,2.73,4.34,4.23,7.59,4.69,4.05.58,7.73-.54,11.32-2.21.08.02.15.03.23.05,0,2.54,0,5.08.01,7.62-.06.06-.12.13-.17.19-1.96.58-3.9,1.31-5.9,1.7-1.79.36-3.65.52-5.47.47-4.36-.11-8.51-1.04-12.04-3.81-3.4-2.66-5.55-6.12-6.41-10.33-.38-1.88-.69-3.83-.65-5.75.13-6.37,2.28-11.94,7.21-16.14,2.84-2.41,6.19-3.95,9.97-4.24,2.16-.17,4.35-.38,6.5-.19,2.28.2,4.52.85,6.78,1.3.06.06.12.13.17.19Z"/></g></svg>