<svg xmlns="http://www.w3.org/2000/svg" id="Layer_1" viewBox="0 0 576 237.27"><defs><style>.cls-1{fill:#de9727;}.cls-1,.cls-2,.cls-3,.cls-4{fill-rule:evenodd;}.cls-1,.cls-2,.cls-3,.cls-4,.cls-5,.cls-6,.cls-7{stroke-width:0px;}.cls-2,.cls-6{fill:#f6ab1b;}.cls-3{fill:#f6c163;}.cls-4{fill:#f7cf8f;}.cls-5{fill:#231f20;}.cls-7{fill:#010101;}</style></defs><path class="cls-7" d="m485.52,193.81c-1.52-.42-2.92-1.13-4.17-2.06-6.9,18.04-16.03,45.51-16.03,45.51,0,0,11.41-26.34,21.23-43.23-.34-.07-.69-.13-1.03-.23Z"></path><path class="cls-2" d="m562.13,156.97c0,7.13-21.67,12.92-48.4,12.92s-48.41-5.79-48.41-12.92v-28.81c0,7.14,21.67,12.92,48.41,12.92s48.4-5.79,48.4-12.92v28.81h0Z"></path><path class="cls-1" d="m562.13,191.87c0,7.14-21.67,12.92-48.4,12.92s-48.41-5.78-48.41-12.92v-28.82c0,7.14,21.67,12.92,48.41,12.92s48.4-5.78,48.4-12.92v28.82h0Z"></path><path class="cls-3" d="m562.13,122.07c0,7.14-21.67,12.92-48.4,12.92s-48.41-5.79-48.41-12.92v-28.81c0,7.14,21.67,12.92,48.41,12.92s48.4-5.78,48.4-12.92v28.81h0Z"></path><path class="cls-6" d="m44.95,133.9h-15.22l-4.49,17.32c-.36,1.43-.54,2.93-.54,4.49,0,.88.18,1.87.54,2.97H0c1.07-1.57,1.88-2.98,2.41-4.23.54-1.25,1.11-3.04,1.71-5.38l10.14-39.26c.36-1.35.54-2.83.54-4.45,0-.91-.18-1.9-.54-2.97h25.24c-1.1,1.65-1.91,3.08-2.43,4.29-.52,1.21-1.09,2.98-1.69,5.32l-3.26,12.62h15.22l3.83-14.8c.36-1.4.54-2.89.54-4.45,0-.91-.19-1.9-.58-2.97h25.28c-1.1,1.65-1.91,3.09-2.43,4.31-.52,1.22-1.09,2.99-1.69,5.3l-10.14,39.21c-.39,1.46-.58,2.96-.58,4.49,0,.88.19,1.87.58,2.97h-25.24c1.07-1.57,1.87-2.97,2.39-4.21.52-1.24,1.1-3.04,1.73-5.4l3.92-15.17Z"></path><path class="cls-6" d="m80.16,117.28h37.81c1.79,0,3.2.17,4.25.49,1.04.33,2.08.92,3.09,1.77,1.15.99,2.08,2.23,2.76,3.71.69,1.48,1.03,2.96,1.03,4.41s-.3,3.38-.91,5.69l-4.62,17.85c-.36,1.38-.54,2.87-.54,4.49,0,.88.18,1.87.54,2.97h-20c-.33-1.02-.49-2.05-.49-3.09v-.99c-.8,1.48-1.81,2.54-3.05,3.15-1.24.62-2.9.93-4.99.93h-11.96c-3.79,0-6.74-.85-8.82-2.56-2.47-2.01-3.71-4.52-3.71-7.55,0-1.13.19-2.41.58-3.84l1.03-4c.93-3.68,2.38-6.23,4.33-7.63,1.95-1.4,5-2.1,9.15-2.1h19.34c1.51,0,2.47-.18,2.89-.54.77-.63,1.15-1.59,1.15-2.89,0-.88-.32-1.48-.95-1.79-.63-.32-1.79-.47-3.46-.47h-20.12c-3.93-.03-6.86.51-8.78,1.61l4.45-9.65Zm26.18,21.65h-9.81c-1.65,0-2.73.19-3.26.58-.52.39-.98,1.31-1.36,2.76l-1.11,4.21c-.22.88-.33,1.46-.33,1.73,0,.93.29,1.57.87,1.92.58.34,1.62.52,3.13.52h4.99c1.79,0,2.91-.15,3.38-.45.47-.3.88-1.14,1.24-2.52l2.27-8.74Z"></path><path class="cls-6" d="m191.82,117.28l-11.5,49.82c-.85,3.33-1.59,5.64-2.23,6.95-.63,1.31-1.55,2.41-2.76,3.32-2.17,1.65-5.69,2.45-10.56,2.39h-40.62l.82-8.99c2.23.66,4.64.98,7.26.95h22.1c1.9,0,3.19-.24,3.88-.72.69-.48,1.24-1.56,1.65-3.24l1.69-11.72c-.94,1.15-1.83,1.88-2.68,2.19-.85.3-2.43.45-4.74.45h-10.27c-.74,0-2.25-.12-4.54-.37-1.35-.16-2.36-.39-3.05-.68-.69-.29-1.5-.86-2.43-1.71-2.53-2.23-3.79-4.92-3.79-8.08,0-1.26.36-3.27,1.07-6.02l4.41-17.11c.36-1.37.54-2.86.54-4.45,0-.88-.19-1.87-.58-2.97h22.23l-7.42,28.74s-.12.45-.37,1.28c-.11.47-.16.85-.16,1.15,0,1.46,1.32,2.19,3.96,2.19h5.11c1.65,0,2.82-.3,3.53-.91.7-.6,1.29-1.81,1.75-3.63l5.53-21.4c.36-1.37.54-2.86.54-4.45,0-.91-.19-1.9-.58-2.97h22.23Z"></path><path class="cls-6" d="m243.9,117.28l-.41,9.53c-1.4-.6-2.78-1-4.12-1.2-1.35-.19-3.35-.29-6.02-.29h-17.44c-1.9,0-2.85.72-2.85,2.14,0,.6.21,1,.62,1.18.41.18,1.29.27,2.64.27h14.64c2.86,0,5.06.73,6.6,2.19,1.87,1.79,2.8,3.84,2.8,6.14,0,1.07-.22,2.45-.66,4.12l-1.65,6.35c-.55,2.17-1.18,3.86-1.88,5.07-.7,1.21-1.67,2.28-2.91,3.22-1.4,1.07-2.89,1.79-4.47,2.14-1.58.36-4.01.54-7.28.54h-35.05l.95-9.32c1.65.55,2.85.87,3.61.95.76.08,3.32.19,7.69.33h16.33c2.01,0,3.01-.99,3.01-2.97,0-.55-.14-.91-.43-1.09-.29-.18-.86-.27-1.71-.27h-12.16c-2.53,0-4.47-.12-5.81-.35-1.35-.23-2.45-.64-3.3-1.22-2.45-1.73-3.67-4.18-3.67-7.34,0-.88.1-1.69.29-2.43l2.19-8.41c1.29-3.9,2.98-6.43,5.07-7.59,1.76-1.04,4.67-1.61,8.74-1.69h36.66Z"></path><path class="cls-6" d="m291.86,117.28l-2.1,8.04h-16.37l-5.4,20.95c-.11.41-.16.82-.16,1.24,0,1.13.45,1.93,1.34,2.41.89.48,2.34.72,4.35.72h5.4c2.5,0,4.85-.43,7.05-1.28l-2.39,9.32h-20.62c-2.75,0-5-.14-6.74-.43-1.75-.29-3.09-.75-4.02-1.38-1.46-.96-2.6-2.2-3.42-3.71-.82-1.51-1.24-3.11-1.24-4.78,0-.96.16-2.08.5-3.34l5.11-19.71h-8.54l2.06-8.04h8.54l2.02-7.88,20.62-1.24-2.39,9.11h16.41Z"></path><path class="cls-6" d="m297.26,117.28h37.81c1.79,0,3.2.17,4.25.49,1.04.33,2.08.92,3.09,1.77,1.15.99,2.08,2.23,2.76,3.71.69,1.48,1.03,2.96,1.03,4.41s-.3,3.38-.91,5.69l-4.62,17.85c-.36,1.38-.54,2.87-.54,4.49,0,.88.18,1.87.54,2.97h-20c-.33-1.02-.49-2.05-.49-3.09v-.99c-.8,1.48-1.81,2.54-3.05,3.15-1.24.62-2.9.93-4.99.93h-11.96c-3.79,0-6.74-.85-8.82-2.56-2.47-2.01-3.71-4.52-3.71-7.55,0-1.13.19-2.41.58-3.84l1.03-4c.93-3.68,2.38-6.23,4.33-7.63,1.95-1.4,5-2.1,9.15-2.1h19.34c1.51,0,2.47-.18,2.89-.54.77-.63,1.15-1.59,1.15-2.89,0-.88-.32-1.48-.95-1.79-.63-.32-1.79-.47-3.46-.47h-20.12c-3.93-.03-6.86.51-8.78,1.61l4.45-9.65Zm26.18,21.65h-9.81c-1.65,0-2.73.19-3.26.58-.52.39-.98,1.31-1.36,2.76l-1.11,4.21c-.22.88-.33,1.46-.33,1.73,0,.93.29,1.57.87,1.92.58.34,1.62.52,3.13.52h4.99c1.79,0,2.91-.15,3.38-.45.47-.3.88-1.14,1.24-2.52l2.27-8.74Z"></path><path class="cls-6" d="m399.36,126.69c-1.24-.82-3.41-1.28-6.51-1.36h-13.9c-1.87,0-3.17.28-3.9.82-.73.55-1.31,1.69-1.75,3.42l-4.21,16.21c-.28,1.05-.41,1.76-.41,2.14,0,.99.43,1.69,1.3,2.1.87.41,2.32.62,4.35.62h11.79c1.98,0,3.42-.06,4.31-.19.89-.12,1.86-.41,2.91-.85l-3.71,9.07h-27.5c-4.62,0-7.9-.78-9.85-2.35-2.56-2.03-3.84-4.51-3.84-7.42,0-1.1.26-2.67.78-4.7l4.45-17.19c.85-3.6,2.61-6.25,5.28-7.96,2.23-1.26,5.53-1.86,9.9-1.77h31.63l-1.11,9.4Z"></path><path class="cls-6" d="m429.3,102.4l-7.59,29.4,12.78-9.15c1.26-.91,2.25-1.77,2.97-2.58.71-.81,1.31-1.74,1.77-2.78h16.62c-2.47,1.43-5.05,3.13-7.71,5.11l-10.02,7.3,7.34,21.03c.66,1.92,1.25,3.35,1.77,4.29.52.93,1.37,2.16,2.56,3.67h-21.98l-6.06-17.11-3.09,1.94-1.98,7.71c-.36,1.38-.54,2.87-.54,4.49,0,.88.18,1.87.54,2.97h-23.83c1.1-1.59,1.91-3.01,2.43-4.25.52-1.24,1.09-3.02,1.69-5.36l10.14-39.26c.36-1.37.54-2.86.54-4.45,0-.91-.18-1.9-.54-2.97h22.18Z"></path><path class="cls-7" d="m189.08,165.24c1.14-.21,2.38-.3,3.65-.3,1.91,0,3.44.38,4.59,1.24,1.16.9,1.87,2.19,1.87,4.17,0,2.51-1.09,4.55-2.62,5.73-1.48,1.14-3.31,1.67-6.2,1.67-1.69,0-3.07-.17-3.61-.28l2.32-12.23Zm1.35,9.87c.21.02.51.06.97.06,1.24,0,2.45-.49,3.18-1.39.73-.88,1.12-2.02,1.12-3.43,0-1.89-1.1-2.86-2.94-2.86-.43,0-.69.04-.9.07l-1.44,7.55Z"></path><path class="cls-7" d="m212.39,174.68l-1.25,2.98h-3.43l5.99-12.62h4.18l1.35,12.62h-3.37l-.15-2.98h-3.31Zm3.2-2.4l-.13-2.32c-.06-.71-.09-1.76-.17-2.55h-.04c-.32.79-.67,1.85-.99,2.55l-.97,2.32h2.3Z"></path><path class="cls-7" d="m232.59,167.83h-3.16l.54-2.79h9.59l-.52,2.79h-3.24l-1.85,9.83h-3.18l1.83-9.83Z"></path><path class="cls-7" d="m250.52,174.68l-1.25,2.98h-3.43l5.99-12.62h4.18l1.35,12.62h-3.37l-.15-2.98h-3.31Zm3.2-2.4l-.13-2.32c-.06-.71-.09-1.76-.17-2.55h-.04c-.32.79-.67,1.85-.99,2.55l-.97,2.32h2.3Z"></path><path class="cls-7" d="m281.01,174.3c.77.45,1.89.81,3.11.81.88,0,1.69-.34,1.69-1.09,0-.62-.56-.97-1.65-1.54-1.22-.66-2.66-1.63-2.66-3.39,0-2.68,2.36-4.27,5.28-4.27,1.67,0,2.57.32,3.16.62l-.99,2.66c-.41-.21-1.35-.56-2.42-.52-1.12,0-1.67.45-1.67.99,0,.6.84,1.01,1.8,1.55,1.52.79,2.55,1.82,2.55,3.31,0,3.07-2.6,4.42-5.39,4.42-1.97-.04-3.24-.51-3.86-.92l1.05-2.64Z"></path><path class="cls-7" d="m312.1,170.13c0,2.34-.8,4.51-2.25,5.9-1.2,1.16-2.85,1.83-4.79,1.83-3.28,0-5.28-2.27-5.28-5.32,0-2.3.84-4.49,2.3-5.88,1.22-1.16,2.87-1.83,4.77-1.83,3.29,0,5.24,2.15,5.24,5.3Zm-7.47-1.83c-.92.92-1.44,2.75-1.44,4.17,0,1.65.77,2.73,2.34,2.73.66,0,1.27-.3,1.76-.77.9-.92,1.4-2.88,1.4-4.21,0-1.5-.56-2.73-2.21-2.73-.73,0-1.35.3-1.85.8Z"></path><path class="cls-7" d="m324.15,165.04h3.2l-1.85,9.83h4.74l-.52,2.79h-7.94l2.38-12.62Z"></path><path class="cls-7" d="m345.27,165.04l-1.35,7.15c-.09.41-.15.9-.15,1.46.02.77.51,1.55,1.63,1.55,1.27,0,2.06-.84,2.47-2.98l1.35-7.19h3.2l-1.33,7c-.73,3.86-2.32,5.82-6.08,5.82-2.83.04-4.42-1.42-4.42-4.16,0-.54.08-1.18.19-1.78l1.31-6.89h3.18Z"></path><path class="cls-7" d="m365.6,167.83h-3.16l.54-2.79h9.59l-.52,2.79h-3.24l-1.85,9.83h-3.18l1.83-9.83Z"></path><path class="cls-7" d="m386.34,165.04l-2.4,12.62h-3.18l2.38-12.62h3.2Z"></path><path class="cls-7" d="m408.35,170.13c0,2.34-.8,4.51-2.25,5.9-1.2,1.16-2.85,1.83-4.79,1.83-3.28,0-5.28-2.27-5.28-5.32,0-2.3.84-4.49,2.3-5.88,1.22-1.16,2.87-1.83,4.77-1.83,3.29,0,5.24,2.15,5.24,5.3Zm-7.47-1.83c-.92.92-1.44,2.75-1.44,4.17,0,1.65.77,2.73,2.34,2.73.66,0,1.27-.3,1.76-.77.9-.92,1.4-2.88,1.4-4.21,0-1.5-.56-2.73-2.21-2.73-.73,0-1.35.3-1.85.8Z"></path><path class="cls-7" d="m418.02,177.66l2.38-12.62h3.8l1.14,3.8c.49,1.69.84,3.13,1.16,4.66h.06c.06-1.37.24-2.9.6-4.77l.69-3.69h2.98l-2.4,12.62h-3.33l-1.27-4.12c-.52-1.78-.9-3.03-1.25-4.74h-.08c-.13,1.25-.47,3.28-.86,5.37l-.66,3.48h-2.96Z"></path><path class="cls-7" d="m440.58,174.3c.77.45,1.89.81,3.11.81.88,0,1.69-.34,1.69-1.09,0-.62-.56-.97-1.65-1.54-1.22-.66-2.66-1.63-2.66-3.39,0-2.68,2.36-4.27,5.28-4.27,1.67,0,2.56.32,3.16.62l-.99,2.66c-.41-.21-1.35-.56-2.42-.52-1.12,0-1.67.45-1.67.99,0,.6.84,1.01,1.8,1.55,1.52.79,2.55,1.82,2.55,3.31,0,3.07-2.6,4.42-5.39,4.42-1.97-.04-3.24-.51-3.86-.92l1.05-2.64Z"></path><path class="cls-4" d="m513.73,74.31c26.72,0,48.4,5.78,48.4,12.93s-21.67,12.92-48.4,12.92-48.41-5.79-48.41-12.92,21.67-12.93,48.41-12.93h0Z"></path><path class="cls-7" d="m515.22,0c-1.88.97-3.7,2.03-5.48,3.15-1.79,1.12-3.53,2.3-5.19,3.57-1.66,1.27-3.25,2.64-4.69,4.14-1.42,1.5-2.71,3.15-3.56,4.96-.86,1.8-1.18,3.81-.61,5.62.26.9.75,1.77,1.33,2.48.6.7,1.35,1.25,2.21,1.61,1.72.72,3.75.78,5.74.54,2-.24,3.99-.77,5.95-1.41,7.84-2.67,15.16-6.87,22.46-11.06,1.82-1.05,3.79-2.11,5.87-2.86,1.04-.39,2.12-.73,3.27-.93,1.15-.2,2.39-.28,3.7.03.65.17,1.32.43,1.91.86.29.22.57.46.8.74.12.13.24.3.35.46.09.14.19.3.26.43.59,1.11.93,2.16,1.24,3.24.6,2.16.9,4.35,1.01,6.55.18,4.4-.5,8.8-1.87,12.95-.68,2.08-1.55,4.09-2.54,6.02-.99,1.91-2.04,3.8-3.35,5.6-.66.9-1.38,1.77-2.24,2.57-.86.79-1.89,1.53-3.18,1.93-.66.18-1.3.29-2.05.21-.74-.06-1.53-.39-2.11-.89-1.17-1.05-1.54-2.39-1.73-3.54-.34-2.37-.04-4.56.35-6.7.42-2.14,1.01-4.21,1.67-6.25,1.38-4.17,3.74-8.01,6.8-11.08,3.04-3.11,6.62-5.57,10.4-7.56,3.79-1.98,7.77-3.51,11.82-4.77,2.02-.63,4.06-1.19,6.11-1.71,2.05-.52,4.12-.92,6.14-1.53-3.99,1.4-8.08,2.46-12.02,3.94-3.95,1.44-7.8,3.15-11.4,5.26-3.61,2.08-6.98,4.58-9.74,7.62-2.8,3-4.89,6.6-6.06,10.47-.59,1.99-1.11,4-1.45,6.02-.34,2-.56,4.06-.25,5.88.15.9.49,1.7.94,2.06.22.17.45.27.76.3.29.03.72-.03,1.07-.14,1.5-.48,2.89-2.01,4.03-3.62,1.15-1.64,2.16-3.44,3.1-5.28.93-1.83,1.73-3.7,2.35-5.64,1.26-3.87,1.86-7.95,1.68-11.98-.08-2.02-.36-4.03-.88-5.94-.26-.95-.59-1.91-.99-2.67-.31-.62-.84-.99-1.59-1.18-1.53-.37-3.56.11-5.4.8-1.9.69-3.66,1.62-5.5,2.66-3.67,2.06-7.4,4.11-11.22,5.99-3.82,1.87-7.74,3.61-11.88,4.85-2.07.62-4.19,1.12-6.39,1.33-2.18.19-4.53.13-6.7-.88-1.08-.49-2.04-1.27-2.78-2.2-.71-.96-1.23-1.99-1.53-3.12-.63-2.28-.12-4.71.92-6.65,1.04-1.97,2.49-3.62,4.03-5.1,1.56-1.48,3.25-2.79,4.99-4,3.5-2.41,7.23-4.44,11.1-6.14Z"></path><path class="cls-5" d="m523.34,87.6c9.52-16.43,19.77-34.29,21.23-37.58,1.02-2.29,1.03-4.07.57-5.45-1.43,2.33-2.8,4-4.16,5.09-2.35,4.96-8.77,11.99-8.77,11.99,0,0,3.88-18.53,8.6-16.56.42.17.69.45.85.8.72-.93,1.47-2.06,2.25-3.41-.82-.9-1.8-1.5-2.5-1.88-2.77-1.5-6.15.59-8.83,7.6-1.41,3.69-8.59,22.45-15.09,39.43,0,0,1.88-.53,2.99-.54s2.86.52,2.86.52Z"></path></svg>